<mxfile host="app.diagrams.net" modified="2020-08-05T00:29:08.104Z" agent="5.0 (Windows NT 10.0; Win64; x64) AppleWebKit/537.36 (KHTML, like Gecko) Chrome/84.0.4147.105 Safari/537.36" etag="7spGZ35G6BGxYs5DrNWE" version="13.5.9" type="github">
  <diagram id="C5RBs43oDa-KdzZeNtuy" name="Page-1">
    <mxGraphModel dx="2355" dy="737" grid="1" gridSize="10" guides="1" tooltips="1" connect="1" arrows="1" fold="1" page="1" pageScale="1" pageWidth="827" pageHeight="1169" math="0" shadow="0">
      <root>
        <mxCell id="WIyWlLk6GJQsqaUBKTNV-0" />
        <mxCell id="WIyWlLk6GJQsqaUBKTNV-1" parent="WIyWlLk6GJQsqaUBKTNV-0" />
        <mxCell id="h-Ge9SjJWUgGDH5QXjvi-2" style="edgeStyle=orthogonalEdgeStyle;rounded=0;orthogonalLoop=1;jettySize=auto;html=1;exitX=0.5;exitY=1;exitDx=0;exitDy=0;entryX=0.5;entryY=0;entryDx=0;entryDy=0;" edge="1" parent="WIyWlLk6GJQsqaUBKTNV-1" source="h-Ge9SjJWUgGDH5QXjvi-0" target="h-Ge9SjJWUgGDH5QXjvi-1">
          <mxGeometry relative="1" as="geometry" />
        </mxCell>
        <mxCell id="h-Ge9SjJWUgGDH5QXjvi-0" value="Начало программы" style="rounded=1;whiteSpace=wrap;html=1;" vertex="1" parent="WIyWlLk6GJQsqaUBKTNV-1">
          <mxGeometry x="310" y="160" width="104" height="40" as="geometry" />
        </mxCell>
        <mxCell id="h-Ge9SjJWUgGDH5QXjvi-4" style="edgeStyle=orthogonalEdgeStyle;rounded=0;orthogonalLoop=1;jettySize=auto;html=1;exitX=0.5;exitY=1;exitDx=0;exitDy=0;entryX=0.5;entryY=0;entryDx=0;entryDy=0;" edge="1" parent="WIyWlLk6GJQsqaUBKTNV-1" source="h-Ge9SjJWUgGDH5QXjvi-1" target="h-Ge9SjJWUgGDH5QXjvi-3">
          <mxGeometry relative="1" as="geometry" />
        </mxCell>
        <mxCell id="h-Ge9SjJWUgGDH5QXjvi-1" value="Создание массива" style="rounded=0;whiteSpace=wrap;html=1;" vertex="1" parent="WIyWlLk6GJQsqaUBKTNV-1">
          <mxGeometry x="314" y="230" width="100" height="40" as="geometry" />
        </mxCell>
        <mxCell id="h-Ge9SjJWUgGDH5QXjvi-7" style="edgeStyle=orthogonalEdgeStyle;rounded=0;orthogonalLoop=1;jettySize=auto;html=1;exitX=0.5;exitY=1;exitDx=0;exitDy=0;entryX=0.5;entryY=0;entryDx=0;entryDy=0;" edge="1" parent="WIyWlLk6GJQsqaUBKTNV-1" source="h-Ge9SjJWUgGDH5QXjvi-3" target="h-Ge9SjJWUgGDH5QXjvi-6">
          <mxGeometry relative="1" as="geometry" />
        </mxCell>
        <mxCell id="h-Ge9SjJWUgGDH5QXjvi-23" style="edgeStyle=orthogonalEdgeStyle;rounded=0;orthogonalLoop=1;jettySize=auto;html=1;entryX=0.5;entryY=1;entryDx=0;entryDy=0;exitX=1;exitY=0.5;exitDx=0;exitDy=0;" edge="1" parent="WIyWlLk6GJQsqaUBKTNV-1" source="h-Ge9SjJWUgGDH5QXjvi-6" target="h-Ge9SjJWUgGDH5QXjvi-16">
          <mxGeometry relative="1" as="geometry">
            <mxPoint x="430" y="460" as="sourcePoint" />
            <Array as="points">
              <mxPoint x="444" y="460" />
              <mxPoint x="444" y="610" />
              <mxPoint x="-60" y="610" />
            </Array>
          </mxGeometry>
        </mxCell>
        <mxCell id="h-Ge9SjJWUgGDH5QXjvi-26" style="edgeStyle=orthogonalEdgeStyle;rounded=0;orthogonalLoop=1;jettySize=auto;html=1;exitX=1;exitY=0.5;exitDx=0;exitDy=0;entryX=0;entryY=0.5;entryDx=0;entryDy=0;" edge="1" parent="WIyWlLk6GJQsqaUBKTNV-1" source="h-Ge9SjJWUgGDH5QXjvi-3" target="h-Ge9SjJWUgGDH5QXjvi-24">
          <mxGeometry relative="1" as="geometry" />
        </mxCell>
        <mxCell id="h-Ge9SjJWUgGDH5QXjvi-3" value="Пока вводятся символы" style="rhombus;whiteSpace=wrap;html=1;" vertex="1" parent="WIyWlLk6GJQsqaUBKTNV-1">
          <mxGeometry x="304" y="310" width="120" height="80" as="geometry" />
        </mxCell>
        <mxCell id="h-Ge9SjJWUgGDH5QXjvi-10" style="edgeStyle=orthogonalEdgeStyle;rounded=0;orthogonalLoop=1;jettySize=auto;html=1;exitX=0;exitY=0.5;exitDx=0;exitDy=0;entryX=1;entryY=0.5;entryDx=0;entryDy=0;" edge="1" parent="WIyWlLk6GJQsqaUBKTNV-1" source="h-Ge9SjJWUgGDH5QXjvi-6" target="h-Ge9SjJWUgGDH5QXjvi-9">
          <mxGeometry relative="1" as="geometry" />
        </mxCell>
        <mxCell id="h-Ge9SjJWUgGDH5QXjvi-6" value="Если место в массиве заканчивается" style="rhombus;whiteSpace=wrap;html=1;" vertex="1" parent="WIyWlLk6GJQsqaUBKTNV-1">
          <mxGeometry x="304" y="420" width="120" height="80" as="geometry" />
        </mxCell>
        <mxCell id="h-Ge9SjJWUgGDH5QXjvi-13" style="edgeStyle=orthogonalEdgeStyle;rounded=0;orthogonalLoop=1;jettySize=auto;html=1;exitX=0;exitY=0.5;exitDx=0;exitDy=0;entryX=1;entryY=0.5;entryDx=0;entryDy=0;" edge="1" parent="WIyWlLk6GJQsqaUBKTNV-1" source="h-Ge9SjJWUgGDH5QXjvi-8" target="h-Ge9SjJWUgGDH5QXjvi-12">
          <mxGeometry relative="1" as="geometry" />
        </mxCell>
        <mxCell id="h-Ge9SjJWUgGDH5QXjvi-15" style="edgeStyle=orthogonalEdgeStyle;rounded=0;orthogonalLoop=1;jettySize=auto;html=1;exitX=1;exitY=0.5;exitDx=0;exitDy=0;entryX=0;entryY=0.5;entryDx=0;entryDy=0;" edge="1" parent="WIyWlLk6GJQsqaUBKTNV-1" source="h-Ge9SjJWUgGDH5QXjvi-8" target="h-Ge9SjJWUgGDH5QXjvi-14">
          <mxGeometry relative="1" as="geometry" />
        </mxCell>
        <mxCell id="h-Ge9SjJWUgGDH5QXjvi-8" value="Если&amp;nbsp;realloc отработал успешно" style="rhombus;whiteSpace=wrap;html=1;" vertex="1" parent="WIyWlLk6GJQsqaUBKTNV-1">
          <mxGeometry x="150" y="520" width="120" height="80" as="geometry" />
        </mxCell>
        <mxCell id="h-Ge9SjJWUgGDH5QXjvi-11" style="edgeStyle=orthogonalEdgeStyle;rounded=0;orthogonalLoop=1;jettySize=auto;html=1;exitX=0.5;exitY=1;exitDx=0;exitDy=0;entryX=0.5;entryY=0;entryDx=0;entryDy=0;" edge="1" parent="WIyWlLk6GJQsqaUBKTNV-1" source="h-Ge9SjJWUgGDH5QXjvi-9" target="h-Ge9SjJWUgGDH5QXjvi-8">
          <mxGeometry relative="1" as="geometry" />
        </mxCell>
        <mxCell id="h-Ge9SjJWUgGDH5QXjvi-9" value="Увеличиваем массив вдвое" style="rounded=0;whiteSpace=wrap;html=1;" vertex="1" parent="WIyWlLk6GJQsqaUBKTNV-1">
          <mxGeometry x="160" y="440" width="100" height="40" as="geometry" />
        </mxCell>
        <mxCell id="h-Ge9SjJWUgGDH5QXjvi-19" value="" style="edgeStyle=orthogonalEdgeStyle;rounded=0;orthogonalLoop=1;jettySize=auto;html=1;" edge="1" parent="WIyWlLk6GJQsqaUBKTNV-1" source="h-Ge9SjJWUgGDH5QXjvi-12" target="h-Ge9SjJWUgGDH5QXjvi-16">
          <mxGeometry relative="1" as="geometry" />
        </mxCell>
        <mxCell id="h-Ge9SjJWUgGDH5QXjvi-12" value="Обновляем значение раб. массива" style="rounded=0;whiteSpace=wrap;html=1;" vertex="1" parent="WIyWlLk6GJQsqaUBKTNV-1">
          <mxGeometry x="20" y="540" width="100" height="40" as="geometry" />
        </mxCell>
        <mxCell id="h-Ge9SjJWUgGDH5QXjvi-14" value="Выводим строку об ошибке" style="rounded=0;whiteSpace=wrap;html=1;" vertex="1" parent="WIyWlLk6GJQsqaUBKTNV-1">
          <mxGeometry x="312" y="540" width="100" height="40" as="geometry" />
        </mxCell>
        <mxCell id="h-Ge9SjJWUgGDH5QXjvi-20" style="edgeStyle=orthogonalEdgeStyle;rounded=0;orthogonalLoop=1;jettySize=auto;html=1;entryX=0.5;entryY=1;entryDx=0;entryDy=0;" edge="1" parent="WIyWlLk6GJQsqaUBKTNV-1" source="h-Ge9SjJWUgGDH5QXjvi-16" target="h-Ge9SjJWUgGDH5QXjvi-17">
          <mxGeometry relative="1" as="geometry" />
        </mxCell>
        <mxCell id="h-Ge9SjJWUgGDH5QXjvi-16" value="Помещаем символ в массив" style="rounded=0;whiteSpace=wrap;html=1;" vertex="1" parent="WIyWlLk6GJQsqaUBKTNV-1">
          <mxGeometry x="-110" y="540" width="100" height="40" as="geometry" />
        </mxCell>
        <mxCell id="h-Ge9SjJWUgGDH5QXjvi-21" style="edgeStyle=orthogonalEdgeStyle;rounded=0;orthogonalLoop=1;jettySize=auto;html=1;exitX=0.5;exitY=0;exitDx=0;exitDy=0;entryX=0.5;entryY=1;entryDx=0;entryDy=0;" edge="1" parent="WIyWlLk6GJQsqaUBKTNV-1" source="h-Ge9SjJWUgGDH5QXjvi-17" target="h-Ge9SjJWUgGDH5QXjvi-18">
          <mxGeometry relative="1" as="geometry" />
        </mxCell>
        <mxCell id="h-Ge9SjJWUgGDH5QXjvi-17" value="Двигаемся по строке, увеличиваем счётчик" style="rounded=0;whiteSpace=wrap;html=1;" vertex="1" parent="WIyWlLk6GJQsqaUBKTNV-1">
          <mxGeometry x="-120" y="470" width="120" height="40" as="geometry" />
        </mxCell>
        <mxCell id="h-Ge9SjJWUgGDH5QXjvi-22" style="edgeStyle=orthogonalEdgeStyle;rounded=0;orthogonalLoop=1;jettySize=auto;html=1;exitX=0.5;exitY=0;exitDx=0;exitDy=0;entryX=0;entryY=0.5;entryDx=0;entryDy=0;" edge="1" parent="WIyWlLk6GJQsqaUBKTNV-1" source="h-Ge9SjJWUgGDH5QXjvi-18" target="h-Ge9SjJWUgGDH5QXjvi-3">
          <mxGeometry relative="1" as="geometry" />
        </mxCell>
        <mxCell id="h-Ge9SjJWUgGDH5QXjvi-18" value="Ставим нулевой символ" style="rounded=0;whiteSpace=wrap;html=1;" vertex="1" parent="WIyWlLk6GJQsqaUBKTNV-1">
          <mxGeometry x="-110" y="410" width="100" height="40" as="geometry" />
        </mxCell>
        <mxCell id="h-Ge9SjJWUgGDH5QXjvi-28" style="edgeStyle=orthogonalEdgeStyle;rounded=0;orthogonalLoop=1;jettySize=auto;html=1;exitX=0.5;exitY=1;exitDx=0;exitDy=0;entryX=0.5;entryY=0;entryDx=0;entryDy=0;" edge="1" parent="WIyWlLk6GJQsqaUBKTNV-1" source="h-Ge9SjJWUgGDH5QXjvi-24" target="h-Ge9SjJWUgGDH5QXjvi-27">
          <mxGeometry relative="1" as="geometry" />
        </mxCell>
        <mxCell id="h-Ge9SjJWUgGDH5QXjvi-24" value="Уменьшаем массив до реального" style="rounded=0;whiteSpace=wrap;html=1;" vertex="1" parent="WIyWlLk6GJQsqaUBKTNV-1">
          <mxGeometry x="640" y="330" width="110" height="40" as="geometry" />
        </mxCell>
        <mxCell id="h-Ge9SjJWUgGDH5QXjvi-30" style="edgeStyle=orthogonalEdgeStyle;rounded=0;orthogonalLoop=1;jettySize=auto;html=1;exitX=0;exitY=0.5;exitDx=0;exitDy=0;entryX=1;entryY=0.5;entryDx=0;entryDy=0;" edge="1" parent="WIyWlLk6GJQsqaUBKTNV-1" source="h-Ge9SjJWUgGDH5QXjvi-27" target="h-Ge9SjJWUgGDH5QXjvi-29">
          <mxGeometry relative="1" as="geometry" />
        </mxCell>
        <mxCell id="h-Ge9SjJWUgGDH5QXjvi-32" style="edgeStyle=orthogonalEdgeStyle;rounded=0;orthogonalLoop=1;jettySize=auto;html=1;exitX=1;exitY=0.5;exitDx=0;exitDy=0;entryX=0;entryY=0.5;entryDx=0;entryDy=0;" edge="1" parent="WIyWlLk6GJQsqaUBKTNV-1" source="h-Ge9SjJWUgGDH5QXjvi-27" target="h-Ge9SjJWUgGDH5QXjvi-31">
          <mxGeometry relative="1" as="geometry" />
        </mxCell>
        <mxCell id="h-Ge9SjJWUgGDH5QXjvi-27" value="Если&amp;nbsp;realloc отработал успешно" style="rhombus;whiteSpace=wrap;html=1;" vertex="1" parent="WIyWlLk6GJQsqaUBKTNV-1">
          <mxGeometry x="635" y="400" width="120" height="80" as="geometry" />
        </mxCell>
        <mxCell id="h-Ge9SjJWUgGDH5QXjvi-34" style="edgeStyle=orthogonalEdgeStyle;rounded=0;orthogonalLoop=1;jettySize=auto;html=1;exitX=0.5;exitY=1;exitDx=0;exitDy=0;entryX=0.5;entryY=0;entryDx=0;entryDy=0;" edge="1" parent="WIyWlLk6GJQsqaUBKTNV-1" source="h-Ge9SjJWUgGDH5QXjvi-29" target="h-Ge9SjJWUgGDH5QXjvi-33">
          <mxGeometry relative="1" as="geometry" />
        </mxCell>
        <mxCell id="h-Ge9SjJWUgGDH5QXjvi-29" value="Обновляем значение раб. массива" style="rounded=0;whiteSpace=wrap;html=1;" vertex="1" parent="WIyWlLk6GJQsqaUBKTNV-1">
          <mxGeometry x="510" y="420" width="100" height="40" as="geometry" />
        </mxCell>
        <mxCell id="h-Ge9SjJWUgGDH5QXjvi-31" value="Выводим строку об ошибке" style="rounded=0;whiteSpace=wrap;html=1;" vertex="1" parent="WIyWlLk6GJQsqaUBKTNV-1">
          <mxGeometry x="790" y="420" width="100" height="40" as="geometry" />
        </mxCell>
        <mxCell id="h-Ge9SjJWUgGDH5QXjvi-37" style="edgeStyle=orthogonalEdgeStyle;rounded=0;orthogonalLoop=1;jettySize=auto;html=1;exitX=0.5;exitY=1;exitDx=0;exitDy=0;" edge="1" parent="WIyWlLk6GJQsqaUBKTNV-1" source="h-Ge9SjJWUgGDH5QXjvi-33" target="h-Ge9SjJWUgGDH5QXjvi-36">
          <mxGeometry relative="1" as="geometry" />
        </mxCell>
        <mxCell id="h-Ge9SjJWUgGDH5QXjvi-33" value="Освобождаем память доп. массива" style="rounded=0;whiteSpace=wrap;html=1;" vertex="1" parent="WIyWlLk6GJQsqaUBKTNV-1">
          <mxGeometry x="510" y="490" width="100" height="40" as="geometry" />
        </mxCell>
        <mxCell id="h-Ge9SjJWUgGDH5QXjvi-40" style="edgeStyle=orthogonalEdgeStyle;rounded=0;orthogonalLoop=1;jettySize=auto;html=1;exitX=0.5;exitY=1;exitDx=0;exitDy=0;entryX=0.5;entryY=0;entryDx=0;entryDy=0;" edge="1" parent="WIyWlLk6GJQsqaUBKTNV-1" source="h-Ge9SjJWUgGDH5QXjvi-35" target="h-Ge9SjJWUgGDH5QXjvi-39">
          <mxGeometry relative="1" as="geometry" />
        </mxCell>
        <mxCell id="h-Ge9SjJWUgGDH5QXjvi-35" value="&lt;span&gt;Для каждого символа со второго по предпоследний&lt;/span&gt;" style="rhombus;whiteSpace=wrap;html=1;" vertex="1" parent="WIyWlLk6GJQsqaUBKTNV-1">
          <mxGeometry x="500" y="710" width="120" height="80" as="geometry" />
        </mxCell>
        <mxCell id="h-Ge9SjJWUgGDH5QXjvi-38" style="edgeStyle=orthogonalEdgeStyle;rounded=0;orthogonalLoop=1;jettySize=auto;html=1;exitX=0.5;exitY=1;exitDx=0;exitDy=0;entryX=0.5;entryY=0;entryDx=0;entryDy=0;" edge="1" parent="WIyWlLk6GJQsqaUBKTNV-1" source="h-Ge9SjJWUgGDH5QXjvi-36" target="h-Ge9SjJWUgGDH5QXjvi-35">
          <mxGeometry relative="1" as="geometry" />
        </mxCell>
        <mxCell id="h-Ge9SjJWUgGDH5QXjvi-48" style="edgeStyle=orthogonalEdgeStyle;rounded=0;orthogonalLoop=1;jettySize=auto;html=1;exitX=1;exitY=0.5;exitDx=0;exitDy=0;entryX=0;entryY=0.5;entryDx=0;entryDy=0;" edge="1" parent="WIyWlLk6GJQsqaUBKTNV-1" source="h-Ge9SjJWUgGDH5QXjvi-36" target="h-Ge9SjJWUgGDH5QXjvi-47">
          <mxGeometry relative="1" as="geometry" />
        </mxCell>
        <mxCell id="h-Ge9SjJWUgGDH5QXjvi-36" value="Для каждого символа с первого по последний" style="rhombus;whiteSpace=wrap;html=1;" vertex="1" parent="WIyWlLk6GJQsqaUBKTNV-1">
          <mxGeometry x="500" y="600" width="120" height="80" as="geometry" />
        </mxCell>
        <mxCell id="h-Ge9SjJWUgGDH5QXjvi-42" style="edgeStyle=orthogonalEdgeStyle;rounded=0;orthogonalLoop=1;jettySize=auto;html=1;exitX=0;exitY=0.5;exitDx=0;exitDy=0;entryX=1;entryY=0.5;entryDx=0;entryDy=0;" edge="1" parent="WIyWlLk6GJQsqaUBKTNV-1" source="h-Ge9SjJWUgGDH5QXjvi-39" target="h-Ge9SjJWUgGDH5QXjvi-41">
          <mxGeometry relative="1" as="geometry" />
        </mxCell>
        <mxCell id="h-Ge9SjJWUgGDH5QXjvi-39" value="&lt;span&gt;Если второй символ меньше первого&lt;/span&gt;" style="rhombus;whiteSpace=wrap;html=1;" vertex="1" parent="WIyWlLk6GJQsqaUBKTNV-1">
          <mxGeometry x="500" y="810" width="120" height="80" as="geometry" />
        </mxCell>
        <mxCell id="h-Ge9SjJWUgGDH5QXjvi-43" style="edgeStyle=orthogonalEdgeStyle;rounded=0;orthogonalLoop=1;jettySize=auto;html=1;exitX=0;exitY=0.5;exitDx=0;exitDy=0;entryX=0;entryY=0.5;entryDx=0;entryDy=0;" edge="1" parent="WIyWlLk6GJQsqaUBKTNV-1" source="h-Ge9SjJWUgGDH5QXjvi-41" target="h-Ge9SjJWUgGDH5QXjvi-36">
          <mxGeometry relative="1" as="geometry">
            <mxPoint x="480" y="730" as="targetPoint" />
          </mxGeometry>
        </mxCell>
        <mxCell id="h-Ge9SjJWUgGDH5QXjvi-41" value="Меняем местами через третью переменную" style="rounded=0;whiteSpace=wrap;html=1;" vertex="1" parent="WIyWlLk6GJQsqaUBKTNV-1">
          <mxGeometry x="370" y="830" width="100" height="40" as="geometry" />
        </mxCell>
        <mxCell id="h-Ge9SjJWUgGDH5QXjvi-51" style="edgeStyle=orthogonalEdgeStyle;rounded=0;orthogonalLoop=1;jettySize=auto;html=1;exitX=0.5;exitY=1;exitDx=0;exitDy=0;entryX=0.5;entryY=0;entryDx=0;entryDy=0;" edge="1" parent="WIyWlLk6GJQsqaUBKTNV-1" source="h-Ge9SjJWUgGDH5QXjvi-46" target="h-Ge9SjJWUgGDH5QXjvi-50">
          <mxGeometry relative="1" as="geometry" />
        </mxCell>
        <mxCell id="h-Ge9SjJWUgGDH5QXjvi-46" value="Освобождаем память массива" style="rounded=0;whiteSpace=wrap;html=1;" vertex="1" parent="WIyWlLk6GJQsqaUBKTNV-1">
          <mxGeometry x="700" y="690" width="100" height="40" as="geometry" />
        </mxCell>
        <mxCell id="h-Ge9SjJWUgGDH5QXjvi-49" style="edgeStyle=orthogonalEdgeStyle;rounded=0;orthogonalLoop=1;jettySize=auto;html=1;exitX=0.5;exitY=1;exitDx=0;exitDy=0;" edge="1" parent="WIyWlLk6GJQsqaUBKTNV-1" source="h-Ge9SjJWUgGDH5QXjvi-47" target="h-Ge9SjJWUgGDH5QXjvi-46">
          <mxGeometry relative="1" as="geometry" />
        </mxCell>
        <mxCell id="h-Ge9SjJWUgGDH5QXjvi-47" value="Выводим строку" style="rounded=0;whiteSpace=wrap;html=1;" vertex="1" parent="WIyWlLk6GJQsqaUBKTNV-1">
          <mxGeometry x="700" y="620" width="100" height="40" as="geometry" />
        </mxCell>
        <mxCell id="h-Ge9SjJWUgGDH5QXjvi-50" value="Конец программы" style="rounded=1;whiteSpace=wrap;html=1;" vertex="1" parent="WIyWlLk6GJQsqaUBKTNV-1">
          <mxGeometry x="698" y="770" width="104" height="40" as="geometry" />
        </mxCell>
      </root>
    </mxGraphModel>
  </diagram>
</mxfile>
